<?xml version="1.0" encoding="utf-8"?>
<!-- Generator: Adobe Illustrator 26.2.1, SVG Export Plug-In . SVG Version: 6.00 Build 0)  -->
<svg version="1.1" id="Layer_1" xmlns="http://www.w3.org/2000/svg" xmlns:xlink="http://www.w3.org/1999/xlink" x="0px" y="0px"
	 viewBox="0 0 399.5 293.3" style="enable-background:new 0 0 399.5 293.3;" xml:space="preserve">
<style type="text/css">
	.st0{enable-background:new    ;}
	.st1{fill:#808080;}
	.st2{font-family:'ArialMT';}
	.st3{font-size:3.96px;}
	.st4{font-size:3.1313px;}
	.st5{fill:none;stroke:#0DAB76;stroke-width:0.432;stroke-linecap:round;stroke-miterlimit:11.3386;}
	.st6{font-size:5.544px;}
	.st7{fill:none;stroke:#C90D0C;stroke-width:0.432;stroke-linecap:round;stroke-miterlimit:11.3386;}
	.st8{fill:none;stroke:#C90D0C;stroke-width:0.72;stroke-linecap:round;stroke-miterlimit:11.3386;}
	.st9{font-size:4.752px;}
	.st10{font-size:3.168px;}
	.st11{fill:none;stroke:#C90D0C;stroke-width:0.72;stroke-miterlimit:11.3386;}
	.st12{fill:#C90D0C;}
</style>
<desc>generated by eagle2svg 1.2, developed by http://www.nicai-systems.de</desc>
<g id="surface0">
	<text transform="matrix(6.123234e-17 -1 1 6.123234e-17 4.7392 200.1933)" class="st0"><tspan x="0" y="0" class="st1 st2 st3">MCU upload/ </tspan><tspan x="0" y="4.8" class="st1 st2 st3">UART debug</tspan></text>
	<text transform="matrix(6.123234e-17 -1 1 6.123234e-17 274.6873 61.2862)" class="st1 st2 st3">FPGA firmware upload</text>
	<text transform="matrix(1.2647 0 0 1 203.4271 240.8357)" class="st1 st2 st4">To NE0-NANO</text>
	<text transform="matrix(6.123234e-17 -1 1 6.123234e-17 4.7392 243.3945)" class="st0"><tspan x="0" y="0" class="st1 st2 st3">From pwr supply</tspan><tspan x="0" y="4.8" class="st1 st2 st3">7VDC 1A</tspan></text>
	<g>
		<line class="st5" x1="98.3" y1="289.5" x2="98.3" y2="260.7"/>
		<line class="st5" x1="98.3" y1="289.5" x2="213.5" y2="289.5"/>
		<line class="st5" x1="213.5" y1="289.5" x2="213.5" y2="260.7"/>
	</g>
	<g>
		<line class="st5" x1="105.5" y1="260.7" x2="105.5" y2="267.9"/>
		<line class="st5" x1="271.1" y1="131.1" x2="235.1" y2="131.1"/>
		<line class="st5" x1="235.1" y1="131.1" x2="235.1" y2="138.3"/>
	</g>
	<g>
		<line class="st5" x1="91.1" y1="138.3" x2="91.1" y2="102.3"/>
		<line class="st5" x1="91.1" y1="102.3" x2="271.1" y2="102.3"/>
		<text transform="matrix(1 0 0 1 177.4881 102.3272)" class="st1 st2 st6">SPI_FPGA_SS</text>
	</g>
	<g>
		<line class="st5" x1="76.7" y1="138.3" x2="76.7" y2="116.7"/>
		<line class="st5" x1="76.7" y1="116.7" x2="271.1" y2="116.7"/>
		<text transform="matrix(1 0 0 1 177.4881 116.7257)" class="st1 st2 st6">SPI_MISO</text>
	</g>
	<g>
		<line class="st5" x1="83.9" y1="138.3" x2="83.9" y2="109.5"/>
		<line class="st5" x1="83.9" y1="109.5" x2="271.1" y2="109.5"/>
		<text transform="matrix(1 0 0 1 177.4881 109.5264)" class="st1 st2 st6">SPI_MOSI</text>
	</g>
	<g>
		<line class="st5" x1="69.5" y1="138.3" x2="69.5" y2="123.9"/>
		<line class="st5" x1="69.5" y1="123.9" x2="271.1" y2="123.9"/>
		<text transform="matrix(1 0 0 1 177.4881 123.9268)" class="st1 st2 st6">SPI_SCLK</text>
	</g>
	<g>
		<line class="st7" x1="105.5" y1="267.9" x2="105.5" y2="275.1"/>
		<line class="st8" x1="100.1" y1="275.1" x2="110.9" y2="275.1"/>
		<text transform="matrix(1 0 0 1 105.4881 282.3262)" class="st1 st2 st6">GND</text>
	</g>
	<g>
		<line class="st7" x1="155.9" y1="66.3" x2="155.9" y2="73.5"/>
		<line class="st8" x1="150.5" y1="73.5" x2="161.3" y2="73.5"/>
		<text transform="matrix(1 0 0 1 155.8885 80.7257)" class="st1 st2 st6">GND</text>
	</g>
	<g>
		<line class="st7" x1="235.1" y1="138.3" x2="235.1" y2="145.5"/>
		<line class="st8" x1="229.7" y1="145.5" x2="240.5" y2="145.5"/>
		<text transform="matrix(1 0 0 1 235.0887 152.7257)" class="st1 st2 st6">GND</text>
	</g>
	<g>
		<line class="st7" x1="155.9" y1="23.1" x2="155.9" y2="15.9"/>
		<line class="st8" x1="159.5" y1="21.3" x2="155.9" y2="15.9"/>
		<line class="st8" x1="155.9" y1="15.9" x2="152.3" y2="21.3"/>
		<text transform="matrix(1 0 0 1 155.8885 12.3253)" class="st1 st2 st6">5V</text>
	</g>
	<g>
		<line class="st7" x1="213.5" y1="260.7" x2="213.5" y2="253.5"/>
		<line class="st8" x1="217.1" y1="258.9" x2="213.5" y2="253.5"/>
		<line class="st8" x1="213.5" y1="253.5" x2="209.9" y2="258.9"/>
		<text transform="matrix(1 0 0 1 213.4881 249.9259)" class="st1 st2 st6">5V</text>
	</g>
	<g>
		<line class="st7" x1="271.1" y1="131.1" x2="285.5" y2="131.1"/>
		<text transform="matrix(1 0 0 1 292.1121 133.2862)" class="st1 st2 st9">GND</text>
		<text transform="matrix(1 0 0 1 262.7479 130.1182)" class="st1 st2 st9">JP1_12</text>
		<line class="st7" x1="271.1" y1="195.9" x2="285.5" y2="195.9"/>
		<text transform="matrix(1 0 0 1 292.1121 198.087)" class="st1 st2 st9">GND</text>
		<text transform="matrix(1 0 0 1 262.7479 194.919)" class="st1 st2 st9">JP1_30</text>
		<line class="st7" x1="386.3" y1="109.5" x2="371.9" y2="109.5"/>
		<text transform="matrix(1 0 0 1 348.8875 111.6866)" class="st1 st2 st9">PIN_A2</text>
		<text transform="matrix(1 0 0 1 378.5125 108.5186)" class="st1 st2 st9">JP1_5</text>
		<line class="st7" x1="271.1" y1="109.5" x2="285.5" y2="109.5"/>
		<text transform="matrix(1 0 0 1 292.1121 111.6866)" class="st1 st2 st9">PIN_A3</text>
		<text transform="matrix(1 0 0 1 265.3904 108.5186)" class="st1 st2 st9">JP1_6</text>
		<line class="st7" x1="386.3" y1="123.9" x2="371.9" y2="123.9"/>
		<text transform="matrix(1 0 0 1 348.8875 126.087)" class="st1 st2 st9">PIN_A4</text>
		<text transform="matrix(1 0 0 1 378.5125 122.919)" class="st1 st2 st9">JP1_9</text>
		<line class="st7" x1="386.3" y1="138.3" x2="371.9" y2="138.3"/>
		<text transform="matrix(1 0 0 1 348.8875 140.4854)" class="st1 st2 st9">PIN_A5</text>
		<text transform="matrix(1 0 0 1 378.5125 137.3175)" class="st1 st2 st9">JP1_13</text>
		<line class="st7" x1="271.1" y1="145.5" x2="285.5" y2="145.5"/>
		<text transform="matrix(1 0 0 1 292.1121 147.6866)" class="st1 st2 st9">PIN_A6</text>
		<text transform="matrix(1 0 0 1 262.7479 144.5186)" class="st1 st2 st9">JP1_16</text>
		<line class="st7" x1="386.3" y1="159.9" x2="371.9" y2="159.9"/>
		<text transform="matrix(1 0 0 1 348.8875 162.087)" class="st1 st2 st9">PIN_A7</text>
		<text transform="matrix(1 0 0 1 378.5125 158.919)" class="st1 st2 st9">JP1_19</text>
		<line class="st7" x1="386.3" y1="95.1" x2="371.9" y2="95.1"/>
		<text transform="matrix(1 0 0 1 340.9705 97.2862)" class="st1 st2 st9">PIN_A8(IN)</text>
		<text transform="matrix(1 0 0 1 378.5125 94.1182)" class="st1 st2 st9">JP1_1</text>
		<line class="st7" x1="386.3" y1="224.7" x2="371.9" y2="224.7"/>
		<text transform="matrix(1 0 0 1 346.2449 226.8858)" class="st1 st2 st9">PIN_A12</text>
		<text transform="matrix(1 0 0 1 378.5125 223.7178)" class="st1 st2 st9">JP1_37</text>
		<line class="st7" x1="386.3" y1="116.7" x2="371.9" y2="116.7"/>
		<text transform="matrix(1 0 0 1 348.8875 118.8858)" class="st1 st2 st9">PIN_B3</text>
		<text transform="matrix(1 0 0 1 378.5125 115.7178)" class="st1 st2 st9">JP1_7</text>
		<line class="st7" x1="271.1" y1="116.7" x2="285.5" y2="116.7"/>
		<text transform="matrix(1 0 0 1 292.1121 118.8858)" class="st1 st2 st9">PIN_B4</text>
		<text transform="matrix(1 0 0 1 265.3904 115.7178)" class="st1 st2 st9">JP1_8</text>
		<line class="st7" x1="271.1" y1="123.9" x2="285.5" y2="123.9"/>
		<text transform="matrix(1 0 0 1 292.1121 126.087)" class="st1 st2 st9">PIN_B5</text>
		<text transform="matrix(1 0 0 1 262.7479 122.919)" class="st1 st2 st9">JP1_10</text>
		<line class="st7" x1="386.3" y1="145.5" x2="371.9" y2="145.5"/>
		<text transform="matrix(1 0 0 1 348.8875 147.6866)" class="st1 st2 st9">PIN_B6</text>
		<text transform="matrix(1 0 0 1 378.5125 144.5186)" class="st1 st2 st9">JP1_15</text>
		<line class="st7" x1="386.3" y1="152.7" x2="371.9" y2="152.7"/>
		<text transform="matrix(1 0 0 1 348.8875 154.8858)" class="st1 st2 st9">PIN_B7</text>
		<text transform="matrix(1 0 0 1 378.5125 151.7178)" class="st1 st2 st9">JP1_17</text>
		<line class="st7" x1="386.3" y1="102.3" x2="371.9" y2="102.3"/>
		<text transform="matrix(1 0 0 1 340.9705 104.4854)" class="st1 st2 st9">PIN_B8(IN)</text>
		<text transform="matrix(1 0 0 1 378.5125 101.3175)" class="st1 st2 st9">JP1_3</text>
		<line class="st7" x1="271.1" y1="217.5" x2="285.5" y2="217.5"/>
		<text transform="matrix(1 0 0 1 292.1121 219.6866)" class="st1 st2 st9">PIN_B11</text>
		<text transform="matrix(1 0 0 1 262.7479 216.5186)" class="st1 st2 st9">JP1_36</text>
		<line class="st7" x1="271.1" y1="231.9" x2="285.5" y2="231.9"/>
		<text transform="matrix(1 0 0 1 292.1121 234.086)" class="st1 st2 st9">PIN_B12</text>
		<text transform="matrix(1 0 0 1 262.7479 230.918)" class="st1 st2 st9">JP1_40</text>
		<line class="st7" x1="271.1" y1="102.3" x2="285.5" y2="102.3"/>
		<text transform="matrix(1 0 0 1 292.1121 104.4854)" class="st1 st2 st9">PIN_C3</text>
		<text transform="matrix(1 0 0 1 265.3904 101.3175)" class="st1 st2 st9">JP1_4</text>
		<line class="st7" x1="271.1" y1="159.9" x2="285.5" y2="159.9"/>
		<text transform="matrix(1 0 0 1 292.1121 162.087)" class="st1 st2 st9">PIN_C6</text>
		<text transform="matrix(1 0 0 1 262.7479 158.919)" class="st1 st2 st9">JP1_20</text>
		<line class="st7" x1="386.3" y1="167.1" x2="371.9" y2="167.1"/>
		<text transform="matrix(1 0 0 1 348.6258 169.2862)" class="st1 st2 st9">PIN_C8</text>
		<text transform="matrix(1 0 0 1 378.5125 166.1182)" class="st1 st2 st9">JP1_21</text>
		<line class="st7" x1="386.3" y1="203.1" x2="371.9" y2="203.1"/>
		<text transform="matrix(1 0 0 1 348.6258 205.2862)" class="st1 st2 st9">PIN_C9</text>
		<text transform="matrix(1 0 0 1 378.5125 202.1182)" class="st1 st2 st9">JP1_31</text>
		<line class="st7" x1="386.3" y1="217.5" x2="371.9" y2="217.5"/>
		<text transform="matrix(1 0 0 1 346.3348 219.6866)" class="st1 st2 st9">PIN_C11</text>
		<text transform="matrix(1 0 0 1 378.5125 216.5186)" class="st1 st2 st9">JP1_35</text>
		<line class="st7" x1="271.1" y1="95.1" x2="285.5" y2="95.1"/>
		<text transform="matrix(1 0 0 1 292.1121 97.2862)" class="st1 st2 st9">PIN_D3</text>
		<text transform="matrix(1 0 0 1 265.3904 94.1182)" class="st1 st2 st9">JP1_2</text>
		<line class="st7" x1="271.1" y1="138.3" x2="285.5" y2="138.3"/>
		<text transform="matrix(1 0 0 1 292.1121 140.4854)" class="st1 st2 st9">PIN_D5</text>
		<text transform="matrix(1 0 0 1 262.7479 137.3175)" class="st1 st2 st9">JP1_14</text>
		<line class="st7" x1="271.1" y1="152.7" x2="285.5" y2="152.7"/>
		<text transform="matrix(1 0 0 1 292.1121 154.8858)" class="st1 st2 st9">PIN_D6</text>
		<text transform="matrix(1 0 0 1 262.7479 151.7178)" class="st1 st2 st9">JP1_18</text>
		<line class="st7" x1="271.1" y1="174.3" x2="285.5" y2="174.3"/>
		<text transform="matrix(1 0 0 1 292.1121 176.4854)" class="st1 st2 st9">PIN_D8</text>
		<text transform="matrix(1 0 0 1 262.7479 173.3175)" class="st1 st2 st9">JP1_24</text>
		<line class="st7" x1="271.1" y1="203.1" x2="285.5" y2="203.1"/>
		<text transform="matrix(1 0 0 1 292.1121 205.2862)" class="st1 st2 st9">PIN_D9</text>
		<text transform="matrix(1 0 0 1 262.7479 202.1182)" class="st1 st2 st9">JP1_32</text>
		<line class="st7" x1="271.1" y1="224.7" x2="285.5" y2="224.7"/>
		<text transform="matrix(1 0 0 1 292.1121 226.8858)" class="st1 st2 st9">PIN_D11</text>
		<text transform="matrix(1 0 0 1 262.7479 223.7178)" class="st1 st2 st9">JP1_38</text>
		<line class="st7" x1="386.3" y1="231.9" x2="371.9" y2="231.9"/>
		<text transform="matrix(1 0 0 1 345.9822 234.086)" class="st1 st2 st9">PIN_D12</text>
		<text transform="matrix(1 0 0 1 378.5125 230.918)" class="st1 st2 st9">JP1_39</text>
		<line class="st7" x1="271.1" y1="167.1" x2="285.5" y2="167.1"/>
		<text transform="matrix(1 0 0 1 292.1121 169.2862)" class="st1 st2 st9">PIN_E6</text>
		<text transform="matrix(1 0 0 1 262.7479 166.1182)" class="st1 st2 st9">JP1_22</text>
		<line class="st7" x1="386.3" y1="174.3" x2="371.9" y2="174.3"/>
		<text transform="matrix(1 0 0 1 348.8875 176.4854)" class="st1 st2 st9">PIN_E7</text>
		<text transform="matrix(1 0 0 1 378.5125 173.3175)" class="st1 st2 st9">JP1_23</text>
		<line class="st7" x1="386.3" y1="181.5" x2="371.9" y2="181.5"/>
		<text transform="matrix(1 0 0 1 348.8875 183.6866)" class="st1 st2 st9">PIN_E8</text>
		<text transform="matrix(1 0 0 1 378.5125 180.5186)" class="st1 st2 st9">JP1_25</text>
		<line class="st7" x1="271.1" y1="188.7" x2="285.5" y2="188.7"/>
		<text transform="matrix(1 0 0 1 292.1121 190.8858)" class="st1 st2 st9">PIN_E9</text>
		<text transform="matrix(1 0 0 1 262.7479 187.7178)" class="st1 st2 st9">JP1_28</text>
		<line class="st7" x1="271.1" y1="210.3" x2="285.5" y2="210.3"/>
		<text transform="matrix(1 0 0 1 292.1121 212.4854)" class="st1 st2 st9">PIN_E10</text>
		<text transform="matrix(1 0 0 1 262.7479 209.3175)" class="st1 st2 st9">JP1_34</text>
		<line class="st7" x1="386.3" y1="210.3" x2="371.9" y2="210.3"/>
		<text transform="matrix(1 0 0 1 346.5975 212.4854)" class="st1 st2 st9">PIN_E11</text>
		<text transform="matrix(1 0 0 1 378.5125 209.3175)" class="st1 st2 st9">JP1_33</text>
		<line class="st7" x1="271.1" y1="181.5" x2="285.5" y2="181.5"/>
		<text transform="matrix(1 0 0 1 292.1121 183.6866)" class="st1 st2 st9">PIN_F8</text>
		<text transform="matrix(1 0 0 1 262.7479 180.5186)" class="st1 st2 st9">JP1_26</text>
		<line class="st7" x1="386.3" y1="188.7" x2="371.9" y2="188.7"/>
		<text transform="matrix(1 0 0 1 349.1541 190.8858)" class="st1 st2 st9">PIN_F9</text>
		<text transform="matrix(1 0 0 1 378.5125 187.7178)" class="st1 st2 st9">JP1_27</text>
		<line class="st7" x1="386.3" y1="195.9" x2="371.9" y2="195.9"/>
		<text transform="matrix(1 0 0 1 344.1336 198.087)" class="st1 st2 st9">VCC_3V3</text>
		<text transform="matrix(1 0 0 1 378.5125 194.919)" class="st1 st2 st9">JP1_29</text>
		<line class="st7" x1="386.3" y1="131.1" x2="371.9" y2="131.1"/>
		<text transform="matrix(1 0 0 1 346.7762 133.2862)" class="st1 st2 st9">VCC_5V</text>
		<text transform="matrix(1 0 0 1 378.5125 130.1182)" class="st1 st2 st9">JP1_11</text>
		<line class="st8" x1="371.9" y1="87.9" x2="285.5" y2="87.9"/>
		<line class="st8" x1="285.5" y1="87.9" x2="285.5" y2="239.1"/>
		<line class="st8" x1="285.5" y1="239.1" x2="371.9" y2="239.1"/>
		<line class="st8" x1="371.9" y1="239.1" x2="371.9" y2="87.9"/>
		<text transform="matrix(1 0 0 1 347.8524 77.126)" class="st1 st2 st6">PCB1JP1</text>
		<text transform="matrix(1 0 0 1 343.2401 84.3272)" class="st1 st2 st6">NE0-NANO</text>
	</g>
	<g>
		<line class="st7" x1="155.9" y1="23.1" x2="155.9" y2="37.5"/>
		<text transform="matrix(6.123234e-17 -1 1 6.123234e-17 154.8807 30.9014)" class="st1 st2 st9">PWR+</text>
		<line class="st7" x1="155.9" y1="66.3" x2="155.9" y2="51.9"/>
		<text transform="matrix(6.123234e-17 -1 1 6.123234e-17 154.8807 71.2178)" class="st1 st2 st9">PWR-</text>
		<text transform="matrix(6.123234e-17 -1 1 6.123234e-17 160.2069 51.9249)" class="st1 st2 st10">GND</text>
		<text transform="matrix(6.123234e-17 -1 1 6.123234e-17 160.2069 37.5264)" class="st1 st2 st10">5V</text>
		<text transform="matrix(1 0 0 1 155.8885 46.8858)" class="st1 st2 st6">PCB1P</text>
	</g>
	<g>
		<line class="st7" x1="278.3" y1="37.5" x2="285.5" y2="37.5"/>
		<text transform="matrix(1 0 0 1 292.1121 39.6866)" class="st1 st2 st9">D+</text>
		<line class="st7" x1="278.3" y1="30.3" x2="285.5" y2="30.3"/>
		<text transform="matrix(1 0 0 1 292.1121 32.4854)" class="st1 st2 st9">D-</text>
		<line class="st7" x1="278.3" y1="51.9" x2="285.5" y2="51.9"/>
		<text transform="matrix(1 0 0 1 292.1121 54.087)" class="st1 st2 st9">GND</text>
		<line class="st7" x1="278.3" y1="44.7" x2="285.5" y2="44.7"/>
		<text transform="matrix(1 0 0 1 292.1121 46.8858)" class="st1 st2 st9">ID</text>
		<line class="st7" x1="278.3" y1="59.1" x2="285.5" y2="59.1"/>
		<text transform="matrix(1 0 0 1 292.1121 61.2862)" class="st1 st2 st9">MTN</text>
		<line class="st7" x1="278.3" y1="23.1" x2="285.5" y2="23.1"/>
		<text transform="matrix(1 0 0 1 292.1121 25.2862)" class="st1 st2 st9">VBUS</text>
		<line class="st8" x1="321.5" y1="15.9" x2="285.5" y2="15.9"/>
		<line class="st8" x1="285.5" y1="15.9" x2="285.5" y2="66.3"/>
		<line class="st8" x1="285.5" y1="66.3" x2="321.5" y2="66.3"/>
		<line class="st8" x1="321.5" y1="15.9" x2="321.5" y2="66.3"/>
		<text transform="matrix(1 0 0 1 285.4881 6.9268)" class="st1 st2 st6">PCB1USB</text>
		<text transform="matrix(1 0 0 1 285.4881 14.126)" class="st1 st2 st6">NE0-NANO</text>
	</g>
	<g>
		<circle class="st11" cx="158" cy="200.2" r="0.7"/>
		<line class="st7" x1="177.5" y1="138.3" x2="177.5" y2="145.5"/>
		<text transform="matrix(6.123234e-17 -1 1 6.123234e-17 179.6483 164.5596)" class="st1 st2 st9">0(RX)</text>
		<line class="st7" x1="170.3" y1="138.3" x2="170.3" y2="145.5"/>
		<text transform="matrix(6.123234e-17 -1 1 6.123234e-17 172.4471 164.0303)" class="st1 st2 st9">1(TX)</text>
		<line class="st7" x1="163.1" y1="138.3" x2="163.1" y2="145.5"/>
		<text transform="matrix(6.123234e-17 -1 1 6.123234e-17 165.2479 154.7921)" class="st1 st2 st9">2</text>
		<line class="st7" x1="91.1" y1="260.7" x2="91.1" y2="253.5"/>
		<text transform="matrix(6.123234e-17 -1 1 6.123234e-17 93.2479 246.9014)" class="st1 st2 st9">3V3_OUT</text>
		<line class="st7" x1="148.7" y1="138.3" x2="148.7" y2="145.5"/>
		<text transform="matrix(6.123234e-17 -1 1 6.123234e-17 150.8475 154.7921)" class="st1 st2 st9">4</text>
		<line class="st7" x1="98.3" y1="260.7" x2="98.3" y2="253.5"/>
		<text transform="matrix(6.123234e-17 -1 1 6.123234e-17 100.4471 246.9014)" class="st1 st2 st9">5V_OUT</text>
		<line class="st7" x1="127.1" y1="138.3" x2="127.1" y2="145.5"/>
		<text transform="matrix(6.123234e-17 -1 1 6.123234e-17 129.2479 154.7921)" class="st1 st2 st9">7</text>
		<line class="st7" x1="105.5" y1="138.3" x2="105.5" y2="145.5"/>
		<text transform="matrix(6.123234e-17 -1 1 6.123234e-17 107.6483 154.7921)" class="st1 st2 st9">8</text>
		<line class="st7" x1="91.1" y1="138.3" x2="91.1" y2="145.5"/>
		<text transform="matrix(6.123234e-17 -1 1 6.123234e-17 93.2479 166.9386)" class="st1 st2 st9">10(SS)</text>
		<line class="st7" x1="83.9" y1="138.3" x2="83.9" y2="145.5"/>
		<text transform="matrix(6.123234e-17 -1 1 6.123234e-17 86.0487 172.3917)" class="st1 st2 st9">11(MOSI)</text>
		<line class="st7" x1="76.7" y1="138.3" x2="76.7" y2="145.5"/>
		<text transform="matrix(6.123234e-17 -1 1 6.123234e-17 78.8475 172.7452)" class="st1 st2 st9">12(MISO)</text>
		<line class="st7" x1="69.5" y1="138.3" x2="69.5" y2="145.5"/>
		<text transform="matrix(6.123234e-17 -1 1 6.123234e-17 71.6483 170.3721)" class="st1 st2 st9">13(SCK)</text>
		<line class="st7" x1="47.9" y1="138.3" x2="47.9" y2="145.5"/>
		<text transform="matrix(6.123234e-17 -1 1 6.123234e-17 50.0487 170.3721)" class="st1 st2 st9">27(SDA)</text>
		<line class="st7" x1="40.7" y1="138.3" x2="40.7" y2="145.5"/>
		<text transform="matrix(6.123234e-17 -1 1 6.123234e-17 42.8475 169.8448)" class="st1 st2 st9">28(SCL)</text>
		<line class="st7" x1="11.9" y1="231.9" x2="19.1" y2="231.9"/>
		<text transform="matrix(1 0 0 1 25.7127 234.086)" class="st1 st2 st9">&lt;PWR&gt;+V</text>
		<line class="st7" x1="11.9" y1="239.1" x2="19.1" y2="239.1"/>
		<text transform="matrix(1 0 0 1 25.7127 241.2862)" class="st1 st2 st9">&lt;PWR&gt;GND</text>
		<line class="st7" x1="11.9" y1="188.7" x2="19.1" y2="188.7"/>
		<text transform="matrix(1 0 0 1 25.7127 190.8858)" class="st1 st2 st9">&lt;USB&gt;+V</text>
		<line class="st7" x1="11.9" y1="195.9" x2="19.1" y2="195.9"/>
		<text transform="matrix(1 0 0 1 25.7127 198.087)" class="st1 st2 st9">&lt;USB&gt;D+</text>
		<line class="st7" x1="11.9" y1="203.1" x2="19.1" y2="203.1"/>
		<text transform="matrix(1 0 0 1 25.7127 205.2862)" class="st1 st2 st9">&lt;USB&gt;D-</text>
		<line class="st7" x1="11.9" y1="210.3" x2="19.1" y2="210.3"/>
		<text transform="matrix(1 0 0 1 25.7127 212.4854)" class="st1 st2 st9">&lt;USB&gt;GND</text>
		<line class="st7" x1="141.5" y1="260.7" x2="141.5" y2="253.5"/>
		<text transform="matrix(6.123234e-17 -1 1 6.123234e-17 143.6483 246.9014)" class="st1 st2 st9">A0</text>
		<line class="st7" x1="148.7" y1="260.7" x2="148.7" y2="253.5"/>
		<text transform="matrix(6.123234e-17 -1 1 6.123234e-17 150.8475 246.9014)" class="st1 st2 st9">A1</text>
		<line class="st7" x1="155.9" y1="260.7" x2="155.9" y2="253.5"/>
		<text transform="matrix(6.123234e-17 -1 1 6.123234e-17 158.0487 246.9014)" class="st1 st2 st9">A2</text>
		<line class="st7" x1="163.1" y1="260.7" x2="163.1" y2="253.5"/>
		<text transform="matrix(6.123234e-17 -1 1 6.123234e-17 165.2479 246.9014)" class="st1 st2 st9">A3</text>
		<line class="st7" x1="170.3" y1="260.7" x2="170.3" y2="253.5"/>
		<text transform="matrix(6.123234e-17 -1 1 6.123234e-17 172.4471 246.9014)" class="st1 st2 st9">A4</text>
		<line class="st7" x1="177.5" y1="260.7" x2="177.5" y2="253.5"/>
		<text transform="matrix(6.123234e-17 -1 1 6.123234e-17 179.6483 246.9014)" class="st1 st2 st9">A5</text>
		<line class="st7" x1="55.1" y1="138.3" x2="55.1" y2="145.5"/>
		<text transform="matrix(6.123234e-17 -1 1 6.123234e-17 57.2479 164.8233)" class="st1 st2 st9">AREF</text>
		<line class="st7" x1="69.5" y1="260.7" x2="69.5" y2="253.5"/>
		<text transform="matrix(6.123234e-17 -1 1 6.123234e-17 71.6483 246.9014)" class="st1 st2 st9">ATN</text>
		<line class="st7" x1="105.5" y1="260.7" x2="105.5" y2="253.5"/>
		<text transform="matrix(6.123234e-17 -1 1 6.123234e-17 107.6483 246.9014)" class="st1 st2 st9">GND</text>
		<line class="st7" x1="112.7" y1="260.7" x2="112.7" y2="253.5"/>
		<text transform="matrix(6.123234e-17 -1 1 6.123234e-17 114.8475 246.9014)" class="st1 st2 st9">GND</text>
		<line class="st7" x1="62.3" y1="138.3" x2="62.3" y2="145.5"/>
		<text transform="matrix(6.123234e-17 -1 1 6.123234e-17 64.4471 162.71)" class="st1 st2 st9">GND</text>
		<line class="st7" x1="76.7" y1="260.7" x2="76.7" y2="253.5"/>
		<text transform="matrix(6.123234e-17 -1 1 6.123234e-17 78.8475 246.9014)" class="st1 st2 st9">IOREF</text>
		<line class="st7" x1="83.9" y1="260.7" x2="83.9" y2="253.5"/>
		<text transform="matrix(6.123234e-17 -1 1 6.123234e-17 86.0487 246.9014)" class="st1 st2 st9">RESET</text>
		<line class="st7" x1="119.9" y1="260.7" x2="119.9" y2="253.5"/>
		<text transform="matrix(6.123234e-17 -1 1 6.123234e-17 122.0487 246.9014)" class="st1 st2 st9">VIN</text>
		<line class="st7" x1="155.9" y1="138.3" x2="155.9" y2="145.5"/>
		<text transform="matrix(6.123234e-17 -1 1 6.123234e-17 158.0487 157.5675)" class="st1 st2 st9">~3</text>
		<line class="st7" x1="141.5" y1="138.3" x2="141.5" y2="145.5"/>
		<text transform="matrix(6.123234e-17 -1 1 6.123234e-17 143.6483 157.5675)" class="st1 st2 st9">~5</text>
		<line class="st7" x1="134.3" y1="138.3" x2="134.3" y2="145.5"/>
		<text transform="matrix(6.123234e-17 -1 1 6.123234e-17 136.4471 157.5675)" class="st1 st2 st9">~6</text>
		<line class="st7" x1="98.3" y1="138.3" x2="98.3" y2="145.5"/>
		<text transform="matrix(6.123234e-17 -1 1 6.123234e-17 100.4471 157.5675)" class="st1 st2 st9">~9</text>
		<line class="st8" x1="19.1" y1="145.5" x2="184.7" y2="145.5"/>
		<line class="st8" x1="184.7" y1="145.5" x2="184.7" y2="167.1"/>
		<line class="st8" x1="184.7" y1="167.1" x2="191.9" y2="174.3"/>
		<line class="st8" x1="191.9" y1="174.3" x2="191.9" y2="246.3"/>
		<line class="st8" x1="191.9" y1="246.3" x2="184.7" y2="253.5"/>
		<line class="st8" x1="184.7" y1="253.5" x2="19.1" y2="253.5"/>
		<line class="st8" x1="19.1" y1="253.5" x2="19.1" y2="145.5"/>
		<text transform="matrix(1 0 0 1 160.9285 198.8057)" class="st12 st2 st3">ICSP</text>
		<text transform="matrix(1 0 0 1 62.2879 188.7257)" class="st12 st2 st3">Note: I/O pins are 3V3 (5V tolerant)</text>
		<text transform="matrix(1 0 0 1 19.0887 260.7266)" class="st1 st2 st6">PCB2</text>
		<text transform="matrix(1 0 0 1 19.0887 267.9258)" class="st1 st2 st6">ARDUINO101</text>
	</g>
</g>
</svg>
